<svg xmlns="http://www.w3.org/2000/svg" width="159.082" height="159.082" viewBox="0 0 159.082 159.082">
  <g id="Grupo_908" data-name="Grupo 908" transform="translate(-219.66 -224.764)">
    <g id="Grupo_907" data-name="Grupo 907">
      <circle id="Elipse_157" data-name="Elipse 157" cx="3.912" cy="3.912" r="3.912" transform="translate(244.87 249.974)" fill="#7cad14"/>
      <circle id="Elipse_158" data-name="Elipse 158" cx="3.912" cy="3.912" r="3.912" transform="translate(219.66 249.974)" fill="#7cad14"/>
      <circle id="Elipse_159" data-name="Elipse 159" cx="3.912" cy="3.912" r="3.912" transform="translate(295.289 249.974)" fill="#7cad14"/>
      <circle id="Elipse_160" data-name="Elipse 160" cx="3.912" cy="3.912" r="3.912" transform="translate(270.08 249.974)" fill="#7cad14"/>
      <circle id="Elipse_161" data-name="Elipse 161" cx="3.912" cy="3.912" r="3.912" transform="translate(320.499 249.974)" fill="#7cad14"/>
      <circle id="Elipse_162" data-name="Elipse 162" cx="3.912" cy="3.912" r="3.912" transform="translate(345.709 249.974)" fill="#7cad14"/>
      <circle id="Elipse_163" data-name="Elipse 163" cx="3.912" cy="3.912" r="3.912" transform="translate(370.918 249.974)" fill="#7cad14"/>
      <circle id="Elipse_164" data-name="Elipse 164" cx="3.912" cy="3.912" r="3.912" transform="translate(244.87 275.183)" fill="#7cad14"/>
      <circle id="Elipse_165" data-name="Elipse 165" cx="3.912" cy="3.912" r="3.912" transform="translate(219.66 275.183)" fill="#7cad14"/>
      <circle id="Elipse_166" data-name="Elipse 166" cx="3.912" cy="3.912" r="3.912" transform="translate(295.289 275.183)" fill="#7cad14"/>
      <circle id="Elipse_167" data-name="Elipse 167" cx="3.912" cy="3.912" r="3.912" transform="translate(270.08 275.183)" fill="#7cad14"/>
      <circle id="Elipse_168" data-name="Elipse 168" cx="3.912" cy="3.912" r="3.912" transform="translate(320.499 275.183)" fill="#7cad14"/>
      <circle id="Elipse_169" data-name="Elipse 169" cx="3.912" cy="3.912" r="3.912" transform="translate(345.709 275.183)" fill="#7cad14"/>
      <circle id="Elipse_170" data-name="Elipse 170" cx="3.912" cy="3.912" r="3.912" transform="translate(370.918 275.183)" fill="#7cad14"/>
      <circle id="Elipse_171" data-name="Elipse 171" cx="3.912" cy="3.912" r="3.912" transform="translate(244.87 300.393)" fill="#7cad14"/>
      <circle id="Elipse_172" data-name="Elipse 172" cx="3.912" cy="3.912" r="3.912" transform="translate(219.66 300.393)" fill="#7cad14"/>
      <circle id="Elipse_173" data-name="Elipse 173" cx="3.912" cy="3.912" r="3.912" transform="translate(295.289 300.393)" fill="#7cad14"/>
      <circle id="Elipse_174" data-name="Elipse 174" cx="3.912" cy="3.912" r="3.912" transform="translate(270.08 300.393)" fill="#7cad14"/>
      <circle id="Elipse_175" data-name="Elipse 175" cx="3.912" cy="3.912" r="3.912" transform="translate(320.499 300.393)" fill="#7cad14"/>
      <circle id="Elipse_176" data-name="Elipse 176" cx="3.912" cy="3.912" r="3.912" transform="translate(345.709 300.393)" fill="#7cad14"/>
      <circle id="Elipse_177" data-name="Elipse 177" cx="3.912" cy="3.912" r="3.912" transform="translate(370.918 300.393)" fill="#7cad14"/>
      <circle id="Elipse_178" data-name="Elipse 178" cx="3.912" cy="3.912" r="3.912" transform="translate(244.87 325.603)" fill="#7cad14"/>
      <circle id="Elipse_179" data-name="Elipse 179" cx="3.912" cy="3.912" r="3.912" transform="translate(219.66 325.603)" fill="#7cad14"/>
      <circle id="Elipse_180" data-name="Elipse 180" cx="3.912" cy="3.912" r="3.912" transform="translate(295.289 325.603)" fill="#7cad14"/>
      <circle id="Elipse_181" data-name="Elipse 181" cx="3.912" cy="3.912" r="3.912" transform="translate(270.08 325.603)" fill="#7cad14"/>
      <circle id="Elipse_182" data-name="Elipse 182" cx="3.912" cy="3.912" r="3.912" transform="translate(320.499 325.603)" fill="#7cad14"/>
      <circle id="Elipse_183" data-name="Elipse 183" cx="3.912" cy="3.912" r="3.912" transform="translate(345.709 325.603)" fill="#7cad14"/>
      <circle id="Elipse_184" data-name="Elipse 184" cx="3.912" cy="3.912" r="3.912" transform="translate(370.918 325.603)" fill="#7cad14"/>
      <circle id="Elipse_185" data-name="Elipse 185" cx="3.912" cy="3.912" r="3.912" transform="translate(244.87 350.813)" fill="#7cad14"/>
      <circle id="Elipse_186" data-name="Elipse 186" cx="3.912" cy="3.912" r="3.912" transform="translate(219.66 350.813)" fill="#7cad14"/>
      <circle id="Elipse_187" data-name="Elipse 187" cx="3.912" cy="3.912" r="3.912" transform="translate(295.289 350.813)" fill="#7cad14"/>
      <circle id="Elipse_188" data-name="Elipse 188" cx="3.912" cy="3.912" r="3.912" transform="translate(270.08 350.813)" fill="#7cad14"/>
      <circle id="Elipse_189" data-name="Elipse 189" cx="3.912" cy="3.912" r="3.912" transform="translate(320.499 350.813)" fill="#7cad14"/>
      <circle id="Elipse_190" data-name="Elipse 190" cx="3.912" cy="3.912" r="3.912" transform="translate(345.709 350.813)" fill="#7cad14"/>
      <circle id="Elipse_191" data-name="Elipse 191" cx="3.912" cy="3.912" r="3.912" transform="translate(370.918 350.813)" fill="#7cad14"/>
      <circle id="Elipse_192" data-name="Elipse 192" cx="3.912" cy="3.912" r="3.912" transform="translate(244.87 376.022)" fill="#7cad14"/>
      <circle id="Elipse_193" data-name="Elipse 193" cx="3.912" cy="3.912" r="3.912" transform="translate(219.66 376.022)" fill="#7cad14"/>
      <circle id="Elipse_194" data-name="Elipse 194" cx="3.912" cy="3.912" r="3.912" transform="translate(295.289 376.022)" fill="#7cad14"/>
      <circle id="Elipse_195" data-name="Elipse 195" cx="3.912" cy="3.912" r="3.912" transform="translate(270.08 376.022)" fill="#7cad14"/>
      <circle id="Elipse_196" data-name="Elipse 196" cx="3.912" cy="3.912" r="3.912" transform="translate(320.499 376.022)" fill="#7cad14"/>
      <circle id="Elipse_197" data-name="Elipse 197" cx="3.912" cy="3.912" r="3.912" transform="translate(345.709 376.022)" fill="#7cad14"/>
      <circle id="Elipse_198" data-name="Elipse 198" cx="3.912" cy="3.912" r="3.912" transform="translate(370.918 376.022)" fill="#7cad14"/>
      <circle id="Elipse_199" data-name="Elipse 199" cx="3.912" cy="3.912" r="3.912" transform="translate(244.87 224.764)" fill="#7cad14"/>
      <circle id="Elipse_200" data-name="Elipse 200" cx="3.912" cy="3.912" r="3.912" transform="translate(219.66 224.764)" fill="#7cad14"/>
      <circle id="Elipse_201" data-name="Elipse 201" cx="3.912" cy="3.912" r="3.912" transform="translate(295.289 224.764)" fill="#7cad14"/>
      <circle id="Elipse_202" data-name="Elipse 202" cx="3.912" cy="3.912" r="3.912" transform="translate(270.08 224.764)" fill="#7cad14"/>
      <circle id="Elipse_203" data-name="Elipse 203" cx="3.912" cy="3.912" r="3.912" transform="translate(320.499 224.764)" fill="#7cad14"/>
      <circle id="Elipse_204" data-name="Elipse 204" cx="3.912" cy="3.912" r="3.912" transform="translate(345.709 224.764)" fill="#7cad14"/>
      <circle id="Elipse_205" data-name="Elipse 205" cx="3.912" cy="3.912" r="3.912" transform="translate(370.918 224.764)" fill="#7cad14"/>
    </g>
  </g>
</svg>
