<svg xmlns="http://www.w3.org/2000/svg" width="27.964" height="27.965" viewBox="0 0 27.964 27.965">
  <g id="Grupo_875" data-name="Grupo 875" transform="translate(-0.001)">
    <path id="Trazado_260" data-name="Trazado 260" d="M18.154,31.567,28.641,21.016l-.618-.65L17.845,30.528l-4.935-4.942-.618.678,5.243,5.3Z" transform="translate(-6.921 -11.467)" fill="#7cad14"/>
    <path id="Trazado_261" data-name="Trazado 261" d="M13.983,27.965h0A13.983,13.983,0,0,0,23.87,4.1,13.89,13.89,0,0,0,13.983,0h0A13.983,13.983,0,0,0,4.1,23.87,13.89,13.89,0,0,0,13.983,27.965ZM4.714,4.713a13.022,13.022,0,0,1,9.27-3.84h0a13.109,13.109,0,0,1,9.268,22.378,13.022,13.022,0,0,1-9.269,3.84h0A13.109,13.109,0,0,1,4.714,4.713Z" transform="translate(0)" fill="#7cad14"/>
  </g>
</svg>
