<svg xmlns="http://www.w3.org/2000/svg" width="53" height="40" viewBox="0 0 53 40">
  <path id="Trazado_172" data-name="Trazado 172" d="M2.5,6.1v40H13.064V32.682h12.4V46.1H36.025V6.1ZM15.292,26.843H8.932V24.311h6.36Zm0-5.89H8.932V18.421h6.36Zm0-5.89H8.932V12.53h6.36ZM29.341,26.843h-6.36V24.311h6.36v2.532Zm0-5.89h-6.36V18.421h6.36v2.532Zm0-5.89h-6.36V12.53h6.36v2.532Zm9.378,2.076V46.1H55.5V17.138Zm13.618,16.81H41.882V31.416H52.338Zm0-7.595H41.882V23.822H52.338Z" transform="translate(-2.5 -6.1)" fill="#283b49"/>
</svg>
