<svg xmlns="http://www.w3.org/2000/svg" width="30" height="30" viewBox="0 0 30 30">
  <path id="Trazado_288" data-name="Trazado 288" d="M91.6,64H66.563A2.447,2.447,0,0,0,64,66.337V91.429A2.64,2.64,0,0,0,66.563,94h25.03A2.506,2.506,0,0,0,94,91.429V66.337A2.3,2.3,0,0,0,91.6,64ZM73.3,89.007H69V75.644h4.3Zm-2-15.395h-.031a2.337,2.337,0,1,1,.031,0ZM89.006,89.007h-4.3V81.7c0-1.75-.625-2.946-2.18-2.946a2.351,2.351,0,0,0-2.2,1.586,2.894,2.894,0,0,0-.148,1.055v7.611h-4.3V75.644h4.3V77.5a4.351,4.351,0,0,1,3.876-2.172c2.821,0,4.954,1.86,4.954,5.869Z" transform="translate(-64 -64)" fill="#283b49"/>
</svg>
