<svg xmlns="http://www.w3.org/2000/svg" width="161" height="55.233" viewBox="0 0 161 55.233">
  <g id="Grupo_848" data-name="Grupo 848" transform="translate(-73.319 -89.458)">
    <g id="Grupo_846" data-name="Grupo 846" transform="translate(73.319 103.87)">
      <g id="Grupo_844" data-name="Grupo 844" transform="translate(0.118 34.819)">
        <path id="Trazado_215" data-name="Trazado 215" d="M78.917,286.495l-.126.63H75.643l-.4,2.015h3l-.126.629h-3l-.546,2.728h-.776l1.2-6Z" transform="translate(-73.792 -286.495)" fill="#fff"/>
        <path id="Trazado_216" data-name="Trazado 216" d="M103.452,288.09l-.881,4.407h-.776l.881-4.407Zm.319-1.595-.147.735h-.776l.147-.735Z" transform="translate(-94.798 -286.495)" fill="#fff"/>
        <path id="Trazado_217" data-name="Trazado 217" d="M118.877,297.285l.881-4.407h.692l-.189,1.36a2.415,2.415,0,0,1,2.065-1.36q1.23,0,.944,1.431l-.6,2.976H121.9l.6-2.988q.155-.772-.613-.772-.877,0-1.754,1.4l-.474,2.363Z" transform="translate(-107.612 -291.283)" fill="#fff"/>
        <path id="Trazado_218" data-name="Trazado 218" d="M151.644,297.285h-.693l.126-1.049a2.027,2.027,0,0,1-1.7,1.049q-1.5,0-1.075-2.145a2.488,2.488,0,0,1,2.657-2.262,5.6,5.6,0,0,1,1.524.18Zm-.046-3.66a2.1,2.1,0,0,0-.8-.1q-1.406,0-1.725,1.608-.3,1.482.571,1.481a1.891,1.891,0,0,0,1.57-1.066Z" transform="translate(-129.618 -291.283)" fill="#fff"/>
        <path id="Trazado_219" data-name="Trazado 219" d="M175.587,297.285l.882-4.407h.692l-.189,1.36a2.415,2.415,0,0,1,2.065-1.36q1.23,0,.944,1.431l-.6,2.976h-.776l.6-2.988q.155-.772-.613-.772-.877,0-1.754,1.4l-.474,2.363Z" transform="translate(-150.153 -291.283)" fill="#fff"/>
        <path id="Trazado_220" data-name="Trazado 220" d="M208.057,296.74a2.327,2.327,0,0,1-1.536.545q-1.847,0-1.4-2.245a2.372,2.372,0,0,1,2.531-2.161,4.892,4.892,0,0,1,1.15.126l-.126.63a5.1,5.1,0,0,0-1.192-.126q-1.28,0-1.586,1.532-.323,1.616.789,1.616a2.268,2.268,0,0,0,1.494-.545Z" transform="translate(-172.243 -291.283)" fill="#fff"/>
        <path id="Trazado_221" data-name="Trazado 221" d="M231.234,288.09l-.882,4.407h-.776l.881-4.407Zm.319-1.595-.147.735h-.776l.147-.735Z" transform="translate(-190.652 -286.495)" fill="#fff"/>
        <path id="Trazado_222" data-name="Trazado 222" d="M250.584,297.285h-.693l.126-1.049a2.027,2.027,0,0,1-1.7,1.049q-1.5,0-1.075-2.145a2.488,2.488,0,0,1,2.657-2.262,5.6,5.6,0,0,1,1.524.18Zm-.046-3.66a2.1,2.1,0,0,0-.8-.1q-1.406,0-1.725,1.608-.3,1.482.571,1.481a1.891,1.891,0,0,0,1.57-1.066Z" transform="translate(-203.837 -291.283)" fill="#fff"/>
        <path id="Trazado_223" data-name="Trazado 223" d="M274.527,297.285l.882-4.407h.692l-.176,1.31a2.245,2.245,0,0,1,1.939-1.31q1.049,0,.793,1.276a2.327,2.327,0,0,1,1.968-1.276q1.1,0,.814,1.419l-.6,2.988h-.777l.6-2.988q.155-.772-.466-.772-.831,0-1.65,1.4l-.474,2.363H277.3l.6-2.988q.155-.772-.457-.772-.865,0-1.658,1.4l-.474,2.363Z" transform="translate(-224.372 -291.283)" fill="#fff"/>
        <path id="Trazado_224" data-name="Trazado 224" d="M314.142,295.081a2.356,2.356,0,0,1,2.455-2.2q2.014,0,1.574,2.2a2.354,2.354,0,0,1-2.455,2.2Q313.709,297.281,314.142,295.081Zm1.7,1.574q1.238,0,1.557-1.591.31-1.557-.928-1.557t-1.549,1.557Q314.6,296.656,315.842,296.655Z" transform="translate(-254.031 -291.283)" fill="#fff"/>
        <path id="Trazado_225" data-name="Trazado 225" d="M341.2,297.075l.134-.671a4.609,4.609,0,0,0,1.519.252q1.054,0,1.179-.629.117-.588-.617-.588h-.588q-1.427,0-1.167-1.3.252-1.259,2.086-1.259a5.516,5.516,0,0,1,1.524.21l-.134.672a4.589,4.589,0,0,0-1.515-.252q-1.1,0-1.226.63-.118.587.575.588h.588q1.511,0,1.251,1.3-.251,1.259-2.082,1.259A5.532,5.532,0,0,1,341.2,297.075Z" transform="translate(-274.386 -291.283)" fill="#fff"/>
        <path id="Trazado_226" data-name="Trazado 226" d="M385.884,290.023h.487l.025.713h1.192l-.126.63h-1.07l-.508,2.531q-.122.617.411.617h.537l-.126.63h-.739q-1.109,0-.869-1.188Z" transform="translate(-307.285 -289.142)" fill="#fff"/>
        <path id="Trazado_227" data-name="Trazado 227" d="M409.583,292.878l-.882,4.407h-.692l.189-1.36a2.415,2.415,0,0,1-2.065,1.36q-1.23,0-.944-1.431l.6-2.976h.777l-.6,2.988q-.155.772.613.772.877,0,1.755-1.4l.474-2.363Z" transform="translate(-322.347 -291.283)" fill="#fff"/>
        <path id="Trazado_228" data-name="Trazado 228" d="M450.049,292.5l1.2-6h.776l-.575,2.871a2.393,2.393,0,0,1,2.048-1.276q1.23,0,.944,1.431l-.6,2.976h-.776l.6-2.988q.155-.772-.613-.772-.877,0-1.754,1.4l-.474,2.363Z" transform="translate(-356.039 -286.495)" fill="#fff"/>
        <path id="Trazado_229" data-name="Trazado 229" d="M480.885,288.09,480,292.5h-.777l.882-4.407Zm.319-1.595-.147.735h-.776l.147-.735Z" transform="translate(-377.927 -286.495)" fill="#fff"/>
        <path id="Trazado_230" data-name="Trazado 230" d="M495.975,297.075l.134-.671a4.609,4.609,0,0,0,1.519.252q1.054,0,1.179-.629.117-.588-.617-.588H497.6q-1.427,0-1.167-1.3.252-1.259,2.086-1.259a5.518,5.518,0,0,1,1.524.21l-.134.672a4.589,4.589,0,0,0-1.515-.252q-1.1,0-1.226.63-.117.587.575.588h.588q1.511,0,1.251,1.3-.252,1.259-2.082,1.259A5.532,5.532,0,0,1,495.975,297.075Z" transform="translate(-390.49 -291.283)" fill="#fff"/>
        <path id="Trazado_231" data-name="Trazado 231" d="M523.66,290.023h.487l.025.713h1.192l-.126.63h-1.07l-.508,2.531q-.121.617.411.617h.537l-.126.63h-.739q-1.108,0-.869-1.188Z" transform="translate(-410.637 -289.142)" fill="#fff"/>
        <path id="Trazado_232" data-name="Trazado 232" d="M542.678,295.081a2.356,2.356,0,0,1,2.456-2.2q2.014,0,1.574,2.2a2.354,2.354,0,0,1-2.455,2.2Q542.246,297.281,542.678,295.081Zm1.7,1.574q1.238,0,1.557-1.591.31-1.557-.928-1.557t-1.549,1.557Q543.14,296.656,544.378,296.655Z" transform="translate(-425.467 -291.283)" fill="#fff"/>
        <path id="Trazado_233" data-name="Trazado 233" d="M570.071,297.285l.881-4.407h.693l-.2,1.4q.747-1.4,1.771-1.4l-.138.688q-1,0-1.759,1.356l-.474,2.363Z" transform="translate(-446.073 -291.283)" fill="#fff"/>
        <path id="Trazado_234" data-name="Trazado 234" d="M592.593,288.09l-.881,4.407h-.776l.881-4.407Zm.319-1.595-.147.735h-.776l.147-.735Z" transform="translate(-461.724 -286.495)" fill="#fff"/>
        <path id="Trazado_235" data-name="Trazado 235" d="M611.943,297.285h-.692l.126-1.049a2.027,2.027,0,0,1-1.7,1.049q-1.5,0-1.074-2.145a2.487,2.487,0,0,1,2.657-2.262,5.591,5.591,0,0,1,1.523.18Zm-.046-3.66a2.1,2.1,0,0,0-.8-.1q-1.406,0-1.725,1.608-.3,1.482.571,1.481a1.892,1.892,0,0,0,1.57-1.066Z" transform="translate(-474.909 -291.283)" fill="#fff"/>
      </g>
      <g id="Grupo_845" data-name="Grupo 845" transform="translate(0)">
        <path id="Trazado_236" data-name="Trazado 236" d="M493.567,171.4s-2.067,11.542-3.082,17.229c-.216,1.21-.386,2.43-.644,3.631-.056.261-.392.648-.612.657-1.474.059-2.953.03-4.5.03l.481-3.089a15.152,15.152,0,0,1-3.5,2.693,9.124,9.124,0,0,1-5.8.595,3.237,3.237,0,0,1-2.849-3.435c.166-2.414.561-4.817.947-7.21.554-3.429,1.084-6.064,1.643-9.492a1.864,1.864,0,0,1,1.676-1.629c1.561,0,2.585.013,4.241.013-.356,2.074-.682,4.006-1.02,5.936-.519,2.968-1.077,5.929-1.554,8.9-.152.95-.406,2.065.561,2.738a2.986,2.986,0,0,0,3-.07,4.991,4.991,0,0,0,3.061-4.164c.7-4.246,1.384-7.98,2.156-12.213a1.269,1.269,0,0,1,1.31-1.1Z" transform="translate(-373.179 -165.321)" fill="#fff"/>
        <path id="Trazado_237" data-name="Trazado 237" d="M315.91,188.33s-.194,1.056-.316,1.591a2.323,2.323,0,0,1-1.56,1.674,14.31,14.31,0,0,1-8.188-.084c-2.984-.961-4.343-3.24-4.493-6.22-.24-4.762.868-9.146,4.428-12.545,3.062-2.923,6.83-3.53,10.818-2.526,2.721.685,3.764,3.432,2.554,6.149a6.233,6.233,0,0,1-2.656,2.852,18.842,18.842,0,0,1-7.182,2.151c-.727.1-1.457.172-2.358.277a30.24,30.24,0,0,0-.075,3.849c.225,2.2,2.238,3.58,4.827,3.387C313.08,188.783,315.91,188.33,315.91,188.33Zm-8.31-9.7c2.024-.233,4.031-.364,5.669-1.668a3.457,3.457,0,0,0,1.046-1.574,1.944,1.944,0,0,0-2.3-2.659,3.918,3.918,0,0,0-2.6,1.428A8.436,8.436,0,0,0,307.6,178.629Z" transform="translate(-244.354 -164.116)" fill="#fff"/>
        <path id="Trazado_238" data-name="Trazado 238" d="M391.6,171.465h5.71c.213,5.616.425,11.209.647,17.054.235-.39.374-.591.483-.807a131.13,131.13,0,0,0,6.69-15.03c.081-.247.615-1.246,1.448-1.223l3.987-.023-9.138,19.889a2.9,2.9,0,0,1-2.943,1.662h-4.65S392.348,178.685,391.6,171.465Z" transform="translate(-312.074 -165.366)" fill="#fff"/>
        <path id="Trazado_239" data-name="Trazado 239" d="M562.432,190.22c.231-.935.394-1.563.592-2.394.119-.5.841-.884,2.529-.545a11.8,11.8,0,0,0,2.931.135,3.782,3.782,0,0,0,3.455-2.343,2,2,0,0,0-.879-2.491,14.661,14.661,0,0,0-1.938-1.062c-3.309-1.579-4.064-3.385-3.931-6.03a6.21,6.21,0,0,1,4.955-6.229,14.538,14.538,0,0,1,9.846.4c.817.349.982.747.463,1.517a7.979,7.979,0,0,1-1.053,1.32c-.788.745-2.851-.508-5.156-.508a7.8,7.8,0,0,0-1.383.123,2.838,2.838,0,0,0-2.338,2.437,2.485,2.485,0,0,0,1.457,2.644c.742.433,1.52.8,2.288,1.191,4.563,2.294,4.879,7.673.583,10.525-2.886,1.916-6.146,2.215-9.487,1.926A24.367,24.367,0,0,1,562.432,190.22Z" transform="translate(-440.224 -163.231)" fill="#fff"/>
        <path id="Trazado_240" data-name="Trazado 240" d="M183.267,147.158l-1.061,6.429h5.648c-.33,1.094-.583,2.067-.937,3-.076.2-.518.366-.8.372-1.475.036-2.952.017-4.513.017-.441,2.462-.88,4.873-1.305,7.288-.277,1.574-.572,3.147-.79,4.73-.236,1.71.362,2.466,2.063,2.712a7.591,7.591,0,0,0,1.381.055c.457-.018,1.529-.178,1.529-.178l-.444,1.713a1.692,1.692,0,0,1-1.206,1.385,11.931,11.931,0,0,1-6.127.1,4.026,4.026,0,0,1-2.972-4.772c.416-2.8,3-17.188,3-17.188C177.831,146.523,183.267,147.158,183.267,147.158Z" transform="translate(-148.6 -147.14)" fill="#fff"/>
        <path id="Trazado_241" data-name="Trazado 241" d="M237.881,191.707h-4.23l3.38-19.055c.151-.853.654-2.383,2.3-2.383h3.228l-.551,3.4c2.247-2.782,4.788-4.5,8.549-3.665-.668,1.382-1.226,2.564-1.89,3.911-.46.931-2.115.73-3.17.73-1.086,0-2,.66-2.911,2.05a13.907,13.907,0,0,0-1.681,5.507c-.512,2.937-1.3,7.529-1.3,7.529C239.444,190.473,239.216,191.707,237.881,191.707Z" transform="translate(-193.591 -164.128)" fill="#fff"/>
        <path id="Trazado_242" data-name="Trazado 242" d="M73.9,180.8c.731-3.469,2.183-6.525,5.193-8.628a11.783,11.783,0,0,1,5.57-2.036,25.043,25.043,0,0,1,8.894.55,7.215,7.215,0,0,1,.677.252l-3.785,20.932H87.5a1.693,1.693,0,0,1-1.884-2.094l.173-1.279a8.876,8.876,0,0,1-4.952,3.44,11.815,11.815,0,0,1-3.28.293,4.237,4.237,0,0,1-4.027-3.794A21.631,21.631,0,0,1,73.9,180.8Zm14.276-7.052c-2.621-1.117-5.161-.213-6.72,2.465a18.145,18.145,0,0,0-2.2,10.586,1.673,1.673,0,0,0,1.78,1.631,4.9,4.9,0,0,0,5.036-3.665C86.874,181.109,87.485,177.41,88.173,173.749Z" transform="translate(-73.319 -164.267)" fill="#fff"/>
      </g>
    </g>
    <g id="Grupo_847" data-name="Grupo 847" transform="translate(201.198 89.458)">
      <path id="Trazado_243" data-name="Trazado 243" d="M605.143,116.673l-12.931.006,2.374-2.374a1.621,1.621,0,0,1,1.145-.475l12.9-.011a1.174,1.174,0,0,1,.835.345l2.936-2.936a1.809,1.809,0,0,0-1.285-.532l-16.387.014a2.333,2.333,0,0,0-1.648.683l-7.861,7.861a.32.32,0,0,0,.227.547l17.211-.008a1.176,1.176,0,0,1,.833.345l2.934-2.934A1.81,1.81,0,0,0,605.143,116.673Z" transform="translate(-585.128 -105.39)" fill="orange"/>
      <path id="Trazado_244" data-name="Trazado 244" d="M648.814,89.458l-16.3.017a2.546,2.546,0,0,0-1.8.746L628.3,92.63l18.027-.051a1.176,1.176,0,0,1,.833.344l2.934-2.934A1.809,1.809,0,0,0,648.814,89.458Z" transform="translate(-617.516 -89.458)" fill="orange"/>
      <path id="Trazado_245" data-name="Trazado 245" d="M662.121,154.283l-.023-16.257a1.809,1.809,0,0,0-.532-1.283l-2.934,2.934a1.175,1.175,0,0,1,.347.835l.046,17.927,2.35-2.35A2.548,2.548,0,0,0,662.121,154.283Z" transform="translate(-640.267 -124.929)" fill="#f07400"/>
      <path id="Trazado_246" data-name="Trazado 246" d="M688.2,108.236a1.621,1.621,0,0,1-.475,1.147l-1.73,1.73.011-12.936a1.809,1.809,0,0,0-.532-1.285l-2.936,2.936a1.176,1.176,0,0,1,.346.835l-.015,17.215a.32.32,0,0,0,.547.227l7.222-7.222a2.332,2.332,0,0,0,.683-1.65l-.007-16.365a1.811,1.811,0,0,0-.532-1.283l-2.934,2.934" transform="translate(-658.202 -91.054)" fill="#f07400"/>
    </g>
  </g>
</svg>
