<svg xmlns="http://www.w3.org/2000/svg" width="162.622" height="162.62" viewBox="0 0 162.622 162.62">
  <g id="Grupo_869" data-name="Grupo 869" transform="translate(-7.263 -5.409)" style="isolation: isolate">
    <path id="Trazado_257" data-name="Trazado 257" d="M115.676,168.024V113.819h54.195l.014,54.211Z" fill="#99cbe3"/>
    <rect id="Rect치ngulo_145" data-name="Rect치ngulo 145" width="54.204" height="54.2" transform="translate(7.269 5.413)" fill="#99cbe3"/>
    <path id="Trazado_258" data-name="Trazado 258" d="M7.263,168.03v-54.2l54.209-.011v54.206Z" fill="#99cbe3"/>
    <rect id="Rect치ngulo_146" data-name="Rect치ngulo 146" width="54.198" height="54.2" transform="translate(115.676 5.409)" fill="#99cbe3"/>
    <path id="Trazado_259" data-name="Trazado 259" d="M61.473,59.619v54.2h54.2V59.613Zm27.1,38.606a11.507,11.507,0,1,1,11.505-11.506A11.5,11.5,0,0,1,88.576,98.225Z" fill="#99cbe3"/>
    <circle id="Elipse_101" data-name="Elipse 101" cx="11.506" cy="11.506" r="11.506" transform="translate(77.068 21.005)" fill="#99cbe3"/>
    <circle id="Elipse_102" data-name="Elipse 102" cx="11.506" cy="11.506" r="11.506" transform="translate(77.068 129.416)" fill="#99cbe3"/>
    <circle id="Elipse_103" data-name="Elipse 103" cx="11.506" cy="11.506" r="11.506" transform="translate(132.927 75.212)" fill="#99cbe3"/>
    <circle id="Elipse_104" data-name="Elipse 104" cx="11.506" cy="11.506" r="11.506" transform="translate(21.206 75.212)" fill="#99cbe3"/>
  </g>
</svg>
