<svg xmlns="http://www.w3.org/2000/svg" width="143.269" height="143.271" viewBox="0 0 143.269 143.271">
  <g id="Grupo_629" data-name="Grupo 629" style="isolation: isolate">
    <path id="Trazado_118" data-name="Trazado 118" d="M107.452,0,71.634,17.909,35.817,0,0,17.909V35.817L35.817,17.909,71.634,35.817l35.817-17.909,35.817,17.909V17.909Z" fill="#99cbe3"/>
    <path id="Trazado_119" data-name="Trazado 119" d="M71.634,17.909,35.817,0,0,17.909V35.817L35.817,17.909,71.634,35.817l35.817-17.909,35.817,17.909V17.909L107.452,0Z" transform="translate(0 35.817)" fill="#99cbe3"/>
    <path id="Trazado_120" data-name="Trazado 120" d="M71.634,17.911,35.817,0,0,17.911V35.819L35.817,17.911,71.634,35.819l35.817-17.909,35.817,17.909V17.911L107.452,0Z" transform="translate(0 71.634)" fill="#99cbe3"/>
    <path id="Trazado_121" data-name="Trazado 121" d="M71.634,17.909,35.817,0,0,17.909V35.817L35.817,17.909,71.634,35.817l35.817-17.909,35.817,17.909V17.909L107.452,0Z" transform="translate(0 107.454)" fill="#99cbe3"/>
  </g>
</svg>
