<svg xmlns="http://www.w3.org/2000/svg" width="158.062" height="158.104" viewBox="0 0 158.062 158.104">
  <g id="Grupo_932" data-name="Grupo 932" transform="translate(-12.813 -6.122)" style="mix-blend-mode: multiply;isolation: isolate">
    <path id="Trazado_287" data-name="Trazado 287" d="M90.217,164.185a22.679,22.679,0,0,1-4.635-.975,21.042,21.042,0,0,1-13.4-13.406,21.141,21.141,0,0,1,0-12.686,21.038,21.038,0,0,1,13.4-13.4,17.769,17.769,0,0,1,6.343-.975,17.765,17.765,0,0,1,6.343.975,21.038,21.038,0,0,1,13.4,13.4,21.12,21.12,0,0,1,0,12.686,19.316,19.316,0,0,1-5.107,8.3,20.257,20.257,0,0,1-10.809,5.774A29.1,29.1,0,0,1,90.217,164.185Zm58.227,0a22.679,22.679,0,0,1-4.635-.975A21.042,21.042,0,0,1,130.4,149.8a21.141,21.141,0,0,1,0-12.686,21.038,21.038,0,0,1,13.4-13.4,21.12,21.12,0,0,1,12.686,0,21.038,21.038,0,0,1,13.4,13.4,21.12,21.12,0,0,1,0,12.686,19.316,19.316,0,0,1-5.107,8.3,20.257,20.257,0,0,1-10.809,5.774,29.1,29.1,0,0,1-5.54.309ZM31.828,105.958a22.675,22.675,0,0,1-4.636-.975,19.331,19.331,0,0,1-8.3-5.108,19.306,19.306,0,0,1-5.107-8.3,17.772,17.772,0,0,1-.975-6.343,17.765,17.765,0,0,1,.975-6.343,19.306,19.306,0,0,1,5.107-8.3,19.306,19.306,0,0,1,8.3-5.107,17.774,17.774,0,0,1,6.344-.975,17.772,17.772,0,0,1,6.343.975,19.306,19.306,0,0,1,8.3,5.107,19.306,19.306,0,0,1,5.107,8.3,17.765,17.765,0,0,1,.975,6.343,17.772,17.772,0,0,1-.975,6.343,19.306,19.306,0,0,1-5.107,8.3,20.253,20.253,0,0,1-10.809,5.774A29.1,29.1,0,0,1,31.828,105.958Zm58.389,0a22.678,22.678,0,0,1-4.635-.975,21.042,21.042,0,0,1-13.4-13.406,17.772,17.772,0,0,1-.974-6.343,17.765,17.765,0,0,1,.974-6.343,21.038,21.038,0,0,1,13.4-13.4,17.769,17.769,0,0,1,6.343-.975,17.765,17.765,0,0,1,6.343.975,21.038,21.038,0,0,1,13.4,13.4,17.765,17.765,0,0,1,.975,6.343,17.772,17.772,0,0,1-.975,6.343,19.316,19.316,0,0,1-5.107,8.3,20.257,20.257,0,0,1-10.809,5.774A29.1,29.1,0,0,1,90.217,105.958Zm58.227,0a22.678,22.678,0,0,1-4.635-.975,21.042,21.042,0,0,1-13.4-13.406,17.772,17.772,0,0,1-.974-6.343,17.765,17.765,0,0,1,.974-6.343,21.038,21.038,0,0,1,13.4-13.4,21.12,21.12,0,0,1,12.686,0,21.038,21.038,0,0,1,13.4,13.4,17.765,17.765,0,0,1,.975,6.343,17.772,17.772,0,0,1-.975,6.343,19.316,19.316,0,0,1-5.107,8.3,20.257,20.257,0,0,1-10.809,5.774,29.1,29.1,0,0,1-5.54.309ZM31.828,47.569a22.6,22.6,0,0,1-4.636-.976,19.331,19.331,0,0,1-8.3-5.108,19.306,19.306,0,0,1-5.107-8.3,17.765,17.765,0,0,1-.975-6.343,17.769,17.769,0,0,1,.975-6.343A19.306,19.306,0,0,1,18.9,12.2a19.306,19.306,0,0,1,8.3-5.107,17.774,17.774,0,0,1,6.344-.974,17.772,17.772,0,0,1,6.343.974,19.306,19.306,0,0,1,8.3,5.107,19.306,19.306,0,0,1,5.107,8.3,17.769,17.769,0,0,1,.975,6.343,17.765,17.765,0,0,1-.975,6.343,19.306,19.306,0,0,1-5.107,8.3,20.253,20.253,0,0,1-10.809,5.774,29.1,29.1,0,0,1-5.539.31Zm58.389,0a22.6,22.6,0,0,1-4.635-.976,19.34,19.34,0,0,1-8.3-5.108,19.325,19.325,0,0,1-5.107-8.3,17.765,17.765,0,0,1-.974-6.343,17.768,17.768,0,0,1,.974-6.343,19.325,19.325,0,0,1,5.107-8.3,19.316,19.316,0,0,1,8.3-5.107,17.768,17.768,0,0,1,6.343-.974,17.765,17.765,0,0,1,6.343.974,19.316,19.316,0,0,1,8.3,5.107,19.316,19.316,0,0,1,5.107,8.3,17.769,17.769,0,0,1,.975,6.343,17.765,17.765,0,0,1-.975,6.343,19.316,19.316,0,0,1-5.107,8.3,20.257,20.257,0,0,1-10.809,5.774,29.109,29.109,0,0,1-5.54.31Z" fill="#ed6a16"/>
  </g>
</svg>
