<svg xmlns="http://www.w3.org/2000/svg" width="161.284" height="161.284" viewBox="0 0 161.284 161.284">
  <g id="Grupo_931" data-name="Grupo 931" transform="translate(-9.9 -4.532)">
    <g id="Grupo_930" data-name="Grupo 930">
      <path id="Trazado_265" data-name="Trazado 265" d="M114.266,85.174,90.542,61.45,66.818,85.174,90.542,108.9Zm-23.724-16.6,16.6,16.6-16.6,16.6-16.6-16.6Z" fill="#f07400"/>
      <rect id="Rectángulo_186" data-name="Rectángulo 186" width="8.91" height="8.91" transform="translate(84.241 85.174) rotate(-45)" fill="#f07400"/>
      <path id="Trazado_266" data-name="Trazado 266" d="M107.138,44.853l23.724,23.724,23.724-23.724L130.862,21.129Zm23.724,16.6-16.6-16.6,16.6-16.6,16.6,16.6Z" fill="#f07400"/>
      <rect id="Rectángulo_187" data-name="Rectángulo 187" width="8.91" height="8.91" transform="translate(124.562 44.853) rotate(-45)" fill="#f07400"/>
      <path id="Trazado_267" data-name="Trazado 267" d="M50.221,21.129,26.5,44.853,50.221,68.577,73.945,44.853Zm-16.6,23.724,16.6-16.6,16.6,16.6-16.6,16.6Z" fill="#f07400"/>
      <rect id="Rectángulo_188" data-name="Rectángulo 188" width="8.91" height="8.91" transform="translate(43.921 44.853) rotate(-45)" fill="#f07400"/>
      <path id="Trazado_268" data-name="Trazado 268" d="M26.5,125.5l23.724,23.724L73.945,125.5,50.221,101.771Zm23.724,16.6-16.6-16.6,16.6-16.6,16.6,16.6Z" fill="#f07400"/>
      <rect id="Rectángulo_189" data-name="Rectángulo 189" width="8.91" height="8.91" transform="translate(43.921 125.495) rotate(-45)" fill="#f07400"/>
      <path id="Trazado_269" data-name="Trazado 269" d="M130.862,149.219,154.586,125.5l-23.724-23.724L107.138,125.5Zm16.6-23.724-16.6,16.6-16.6-16.6,16.6-16.6Z" fill="#f07400"/>
      <rect id="Rectángulo_190" data-name="Rectángulo 190" width="8.91" height="8.91" transform="translate(124.562 125.495) rotate(-45)" fill="#f07400"/>
      <path id="Trazado_270" data-name="Trazado 270" d="M9.9,61.45v7.127l16.6,16.6-16.6,16.6V108.9L33.624,85.174Z" fill="#f07400"/>
      <path id="Trazado_271" data-name="Trazado 271" d="M9.9,78.874v12.6l6.3-6.3Z" fill="#f07400"/>
      <path id="Trazado_272" data-name="Trazado 272" d="M66.818,165.816h7.127l16.6-16.6,16.6,16.6h7.127L90.542,142.092Z" fill="#f07400"/>
      <path id="Trazado_273" data-name="Trazado 273" d="M84.241,165.816h12.6l-6.3-6.3Z" fill="#f07400"/>
      <path id="Trazado_274" data-name="Trazado 274" d="M171.183,108.9v-7.127l-16.6-16.6,16.6-16.6V61.45L147.459,85.174Z" fill="#f07400"/>
      <path id="Trazado_275" data-name="Trazado 275" d="M171.183,91.474v-12.6l-6.3,6.3Z" fill="#f07400"/>
      <path id="Trazado_276" data-name="Trazado 276" d="M114.266,4.532h-7.127l-16.6,16.6-16.6-16.6H66.818L90.542,28.256Z" fill="#f07400"/>
      <path id="Trazado_277" data-name="Trazado 277" d="M96.842,4.532h-12.6l6.3,6.3Z" fill="#f07400"/>
      <path id="Trazado_278" data-name="Trazado 278" d="M127.3,4.532,90.542,41.289,53.784,4.532H46.657L9.9,41.289v7.127L46.657,85.174,9.9,121.931v7.127l36.757,36.758h7.127l36.758-36.758L127.3,165.816h7.127l36.757-36.758v-7.127L134.426,85.174l36.757-36.758V41.289L134.426,4.532ZM13.463,44.853,50.221,8.1,86.978,44.853,50.221,81.61Zm77.079,3.563L127.3,85.174,90.542,121.931,53.784,85.174ZM50.221,162.252,13.463,125.5,50.221,88.737,86.978,125.5ZM167.62,125.5l-36.758,36.757L94.105,125.5l36.757-36.758Zm0-80.642L130.862,81.61,94.105,44.853,130.862,8.1Z" fill="#f07400"/>
      <path id="Trazado_279" data-name="Trazado 279" d="M147.459,4.532l23.724,23.724V21.129l-16.6-16.6Z" fill="#f07400"/>
      <path id="Trazado_280" data-name="Trazado 280" d="M164.883,4.532l6.3,6.3v-6.3Z" fill="#f07400"/>
      <path id="Trazado_281" data-name="Trazado 281" d="M26.5,4.532,9.9,21.129v7.127L33.624,4.532Z" fill="#f07400"/>
      <path id="Trazado_282" data-name="Trazado 282" d="M9.9,4.532v6.3l6.3-6.3Z" fill="#f07400"/>
      <path id="Trazado_283" data-name="Trazado 283" d="M9.9,149.219l16.6,16.6h7.127L9.9,142.092Z" fill="#f07400"/>
      <path id="Trazado_284" data-name="Trazado 284" d="M9.9,165.816h6.3l-6.3-6.3Z" fill="#f07400"/>
      <path id="Trazado_285" data-name="Trazado 285" d="M154.586,165.816l16.6-16.6v-7.127l-23.724,23.724Z" fill="#f07400"/>
      <path id="Trazado_286" data-name="Trazado 286" d="M171.183,165.816v-6.3l-6.3,6.3Z" fill="#f07400"/>
    </g>
  </g>
</svg>
